M48
;GenerationSoftware,Autodesk,EAGLE,9.5.1*%
;CreationDate,2026-04-20T12:15:45Z*%
FMAT,2
ICI,OFF
METRIC,TZ,000.000
T4C0.350
T3C1.000
T2C1.400
T1C3.200
%
G90
M71
T1
X5000Y5000
X5000Y95000
X30000Y95000
X30000Y5000
T2
X3500Y65500
X56000Y89500
X56000Y94500
X56000Y17500
X56000Y22500
X56000Y5500
X56000Y10500
X3500Y33500
X3500Y28500
X3500Y60500
X56000Y77500
X56000Y82500
X56000Y65500
X56000Y70500
X56000Y53500
X56000Y58500
X56000Y41500
X56000Y46500
X56000Y29500
X56000Y34500
T3
X5800Y40500
X5800Y43040
X5800Y48120
X5800Y45580
X4000Y21250
X4000Y18750
X4000Y16250
X4000Y13750
T4
X40000Y57750
X40000Y45750
X40000Y33750
X40000Y21750
X40000Y9750
X32000Y50250
X18000Y51500
X7750Y15250
X9000Y35000
X28250Y44500
X30250Y46500
X20500Y22969
X22250Y23500
X48750Y27250
X31000Y45750
X32250Y52750
X31250Y52750
X30250Y52750
X45000Y8250
X45000Y92250
X45000Y80250
X45000Y68250
X45000Y56250
X45000Y44250
X45000Y32250
X45000Y20250
X32250Y55750
X18750Y62000
X25750Y73750
X17500Y94000
X29500Y20750
X48500Y38250
X49500Y50250
X49250Y62750
X49250Y74750
X49750Y88750
X50500Y95250
X49250Y14750
X48250Y3750
X39500Y13000
X39500Y25000
X38500Y37000
X37250Y49250
X39000Y61750
X39000Y73500
X39500Y85000
X28750Y43500
X15250Y27500
X16250Y38000
X32750Y59500
X27750Y59000
X26250Y55500
X28000Y52000
X30750Y51750
X35250Y54000
X40000Y93750
X40000Y81750
X40000Y69750
M30