G04 EAGLE Gerber RS-274X export*
G75*
%MOMM*%
%FSLAX34Y34*%
%LPD*%
%INSilkscreen Bottom*%
%IPPOS*%
%AMOC8*
5,1,8,0,0,1.08239X$1,22.5*%
G01*
%ADD10C,0.101600*%
%ADD11C,0.152400*%
%ADD12C,0.050800*%


D10*
X346539Y570428D02*
X345015Y570428D01*
X345015Y565348D01*
X348063Y565348D01*
X348152Y565350D01*
X348240Y565356D01*
X348328Y565365D01*
X348416Y565379D01*
X348503Y565396D01*
X348589Y565417D01*
X348674Y565442D01*
X348758Y565471D01*
X348841Y565503D01*
X348922Y565538D01*
X349001Y565578D01*
X349079Y565620D01*
X349155Y565666D01*
X349229Y565715D01*
X349300Y565768D01*
X349369Y565823D01*
X349436Y565882D01*
X349500Y565943D01*
X349561Y566007D01*
X349620Y566074D01*
X349675Y566143D01*
X349728Y566214D01*
X349777Y566288D01*
X349823Y566364D01*
X349865Y566442D01*
X349905Y566521D01*
X349940Y566602D01*
X349972Y566685D01*
X350001Y566769D01*
X350026Y566854D01*
X350047Y566940D01*
X350064Y567027D01*
X350078Y567115D01*
X350087Y567203D01*
X350093Y567291D01*
X350095Y567380D01*
X350095Y572460D01*
X350093Y572549D01*
X350087Y572637D01*
X350078Y572725D01*
X350064Y572813D01*
X350047Y572900D01*
X350026Y572986D01*
X350001Y573071D01*
X349972Y573155D01*
X349940Y573238D01*
X349905Y573319D01*
X349865Y573398D01*
X349823Y573476D01*
X349777Y573552D01*
X349728Y573626D01*
X349675Y573697D01*
X349620Y573766D01*
X349561Y573833D01*
X349500Y573897D01*
X349436Y573958D01*
X349369Y574017D01*
X349300Y574072D01*
X349229Y574125D01*
X349155Y574174D01*
X349079Y574220D01*
X349001Y574262D01*
X348922Y574302D01*
X348841Y574337D01*
X348758Y574369D01*
X348674Y574398D01*
X348589Y574423D01*
X348503Y574444D01*
X348416Y574461D01*
X348328Y574475D01*
X348240Y574484D01*
X348152Y574490D01*
X348063Y574492D01*
X345015Y574492D01*
X340342Y574492D02*
X340342Y565348D01*
X335262Y565348D02*
X340342Y574492D01*
X335262Y574492D02*
X335262Y565348D01*
X330588Y565348D02*
X330588Y574492D01*
X328048Y574492D01*
X327948Y574490D01*
X327849Y574484D01*
X327749Y574474D01*
X327651Y574461D01*
X327552Y574443D01*
X327455Y574422D01*
X327359Y574397D01*
X327263Y574368D01*
X327169Y574335D01*
X327076Y574299D01*
X326985Y574259D01*
X326895Y574215D01*
X326807Y574168D01*
X326721Y574118D01*
X326637Y574064D01*
X326555Y574007D01*
X326476Y573947D01*
X326398Y573883D01*
X326324Y573817D01*
X326252Y573748D01*
X326183Y573676D01*
X326117Y573602D01*
X326053Y573524D01*
X325993Y573445D01*
X325936Y573363D01*
X325882Y573279D01*
X325832Y573193D01*
X325785Y573105D01*
X325741Y573015D01*
X325701Y572924D01*
X325665Y572831D01*
X325632Y572737D01*
X325603Y572641D01*
X325578Y572545D01*
X325557Y572448D01*
X325539Y572349D01*
X325526Y572251D01*
X325516Y572151D01*
X325510Y572052D01*
X325508Y571952D01*
X325508Y567888D01*
X325510Y567788D01*
X325516Y567689D01*
X325526Y567589D01*
X325539Y567491D01*
X325557Y567392D01*
X325578Y567295D01*
X325603Y567199D01*
X325632Y567103D01*
X325665Y567009D01*
X325701Y566916D01*
X325741Y566825D01*
X325785Y566735D01*
X325832Y566647D01*
X325882Y566561D01*
X325936Y566477D01*
X325993Y566395D01*
X326053Y566316D01*
X326117Y566238D01*
X326183Y566164D01*
X326252Y566092D01*
X326324Y566023D01*
X326398Y565957D01*
X326476Y565893D01*
X326555Y565833D01*
X326637Y565776D01*
X326721Y565722D01*
X326807Y565672D01*
X326895Y565625D01*
X326985Y565581D01*
X327076Y565541D01*
X327169Y565505D01*
X327263Y565472D01*
X327359Y565443D01*
X327455Y565418D01*
X327552Y565397D01*
X327651Y565379D01*
X327749Y565366D01*
X327849Y565356D01*
X327948Y565350D01*
X328048Y565348D01*
X330588Y565348D01*
X345015Y600428D02*
X346539Y600428D01*
X345015Y600428D02*
X345015Y595348D01*
X348063Y595348D01*
X348152Y595350D01*
X348240Y595356D01*
X348328Y595365D01*
X348416Y595379D01*
X348503Y595396D01*
X348589Y595417D01*
X348674Y595442D01*
X348758Y595471D01*
X348841Y595503D01*
X348922Y595538D01*
X349001Y595578D01*
X349079Y595620D01*
X349155Y595666D01*
X349229Y595715D01*
X349300Y595768D01*
X349369Y595823D01*
X349436Y595882D01*
X349500Y595943D01*
X349561Y596007D01*
X349620Y596074D01*
X349675Y596143D01*
X349728Y596214D01*
X349777Y596288D01*
X349823Y596364D01*
X349865Y596442D01*
X349905Y596521D01*
X349940Y596602D01*
X349972Y596685D01*
X350001Y596769D01*
X350026Y596854D01*
X350047Y596940D01*
X350064Y597027D01*
X350078Y597115D01*
X350087Y597203D01*
X350093Y597291D01*
X350095Y597380D01*
X350095Y602460D01*
X350093Y602549D01*
X350087Y602637D01*
X350078Y602725D01*
X350064Y602813D01*
X350047Y602900D01*
X350026Y602986D01*
X350001Y603071D01*
X349972Y603155D01*
X349940Y603238D01*
X349905Y603319D01*
X349865Y603398D01*
X349823Y603476D01*
X349777Y603552D01*
X349728Y603626D01*
X349675Y603697D01*
X349620Y603766D01*
X349561Y603833D01*
X349500Y603897D01*
X349436Y603958D01*
X349369Y604017D01*
X349300Y604072D01*
X349229Y604125D01*
X349155Y604174D01*
X349079Y604220D01*
X349001Y604262D01*
X348922Y604302D01*
X348841Y604337D01*
X348758Y604369D01*
X348674Y604398D01*
X348589Y604423D01*
X348503Y604444D01*
X348416Y604461D01*
X348328Y604475D01*
X348240Y604484D01*
X348152Y604490D01*
X348063Y604492D01*
X345015Y604492D01*
X340342Y604492D02*
X340342Y595348D01*
X335262Y595348D02*
X340342Y604492D01*
X335262Y604492D02*
X335262Y595348D01*
X330588Y595348D02*
X330588Y604492D01*
X328048Y604492D01*
X327948Y604490D01*
X327849Y604484D01*
X327749Y604474D01*
X327651Y604461D01*
X327552Y604443D01*
X327455Y604422D01*
X327359Y604397D01*
X327263Y604368D01*
X327169Y604335D01*
X327076Y604299D01*
X326985Y604259D01*
X326895Y604215D01*
X326807Y604168D01*
X326721Y604118D01*
X326637Y604064D01*
X326555Y604007D01*
X326476Y603947D01*
X326398Y603883D01*
X326324Y603817D01*
X326252Y603748D01*
X326183Y603676D01*
X326117Y603602D01*
X326053Y603524D01*
X325993Y603445D01*
X325936Y603363D01*
X325882Y603279D01*
X325832Y603193D01*
X325785Y603105D01*
X325741Y603015D01*
X325701Y602924D01*
X325665Y602831D01*
X325632Y602737D01*
X325603Y602641D01*
X325578Y602545D01*
X325557Y602448D01*
X325539Y602349D01*
X325526Y602251D01*
X325516Y602151D01*
X325510Y602052D01*
X325508Y601952D01*
X325508Y597888D01*
X325510Y597788D01*
X325516Y597689D01*
X325526Y597589D01*
X325539Y597491D01*
X325557Y597392D01*
X325578Y597295D01*
X325603Y597199D01*
X325632Y597103D01*
X325665Y597009D01*
X325701Y596916D01*
X325741Y596825D01*
X325785Y596735D01*
X325832Y596647D01*
X325882Y596561D01*
X325936Y596477D01*
X325993Y596395D01*
X326053Y596316D01*
X326117Y596238D01*
X326183Y596164D01*
X326252Y596092D01*
X326324Y596023D01*
X326398Y595957D01*
X326476Y595893D01*
X326555Y595833D01*
X326637Y595776D01*
X326721Y595722D01*
X326807Y595672D01*
X326895Y595625D01*
X326985Y595581D01*
X327076Y595541D01*
X327169Y595505D01*
X327263Y595472D01*
X327359Y595443D01*
X327455Y595418D01*
X327552Y595397D01*
X327651Y595379D01*
X327749Y595366D01*
X327849Y595356D01*
X327948Y595350D01*
X328048Y595348D01*
X330588Y595348D01*
X345015Y630428D02*
X346539Y630428D01*
X345015Y630428D02*
X345015Y625348D01*
X348063Y625348D01*
X348152Y625350D01*
X348240Y625356D01*
X348328Y625365D01*
X348416Y625379D01*
X348503Y625396D01*
X348589Y625417D01*
X348674Y625442D01*
X348758Y625471D01*
X348841Y625503D01*
X348922Y625538D01*
X349001Y625578D01*
X349079Y625620D01*
X349155Y625666D01*
X349229Y625715D01*
X349300Y625768D01*
X349369Y625823D01*
X349436Y625882D01*
X349500Y625943D01*
X349561Y626007D01*
X349620Y626074D01*
X349675Y626143D01*
X349728Y626214D01*
X349777Y626288D01*
X349823Y626364D01*
X349865Y626442D01*
X349905Y626521D01*
X349940Y626602D01*
X349972Y626685D01*
X350001Y626769D01*
X350026Y626854D01*
X350047Y626940D01*
X350064Y627027D01*
X350078Y627115D01*
X350087Y627203D01*
X350093Y627291D01*
X350095Y627380D01*
X350095Y632460D01*
X350093Y632549D01*
X350087Y632637D01*
X350078Y632725D01*
X350064Y632813D01*
X350047Y632900D01*
X350026Y632986D01*
X350001Y633071D01*
X349972Y633155D01*
X349940Y633238D01*
X349905Y633319D01*
X349865Y633398D01*
X349823Y633476D01*
X349777Y633552D01*
X349728Y633626D01*
X349675Y633697D01*
X349620Y633766D01*
X349561Y633833D01*
X349500Y633897D01*
X349436Y633958D01*
X349369Y634017D01*
X349300Y634072D01*
X349229Y634125D01*
X349155Y634174D01*
X349079Y634220D01*
X349001Y634262D01*
X348922Y634302D01*
X348841Y634337D01*
X348758Y634369D01*
X348674Y634398D01*
X348589Y634423D01*
X348503Y634444D01*
X348416Y634461D01*
X348328Y634475D01*
X348240Y634484D01*
X348152Y634490D01*
X348063Y634492D01*
X345015Y634492D01*
X340342Y634492D02*
X340342Y625348D01*
X335262Y625348D02*
X340342Y634492D01*
X335262Y634492D02*
X335262Y625348D01*
X330588Y625348D02*
X330588Y634492D01*
X328048Y634492D01*
X327948Y634490D01*
X327849Y634484D01*
X327749Y634474D01*
X327651Y634461D01*
X327552Y634443D01*
X327455Y634422D01*
X327359Y634397D01*
X327263Y634368D01*
X327169Y634335D01*
X327076Y634299D01*
X326985Y634259D01*
X326895Y634215D01*
X326807Y634168D01*
X326721Y634118D01*
X326637Y634064D01*
X326555Y634007D01*
X326476Y633947D01*
X326398Y633883D01*
X326324Y633817D01*
X326252Y633748D01*
X326183Y633676D01*
X326117Y633602D01*
X326053Y633524D01*
X325993Y633445D01*
X325936Y633363D01*
X325882Y633279D01*
X325832Y633193D01*
X325785Y633105D01*
X325741Y633015D01*
X325701Y632924D01*
X325665Y632831D01*
X325632Y632737D01*
X325603Y632641D01*
X325578Y632545D01*
X325557Y632448D01*
X325539Y632349D01*
X325526Y632251D01*
X325516Y632151D01*
X325510Y632052D01*
X325508Y631952D01*
X325508Y627888D01*
X325510Y627788D01*
X325516Y627689D01*
X325526Y627589D01*
X325539Y627491D01*
X325557Y627392D01*
X325578Y627295D01*
X325603Y627199D01*
X325632Y627103D01*
X325665Y627009D01*
X325701Y626916D01*
X325741Y626825D01*
X325785Y626735D01*
X325832Y626647D01*
X325882Y626561D01*
X325936Y626477D01*
X325993Y626395D01*
X326053Y626316D01*
X326117Y626238D01*
X326183Y626164D01*
X326252Y626092D01*
X326324Y626023D01*
X326398Y625957D01*
X326476Y625893D01*
X326555Y625833D01*
X326637Y625776D01*
X326721Y625722D01*
X326807Y625672D01*
X326895Y625625D01*
X326985Y625581D01*
X327076Y625541D01*
X327169Y625505D01*
X327263Y625472D01*
X327359Y625443D01*
X327455Y625418D01*
X327552Y625397D01*
X327651Y625379D01*
X327749Y625366D01*
X327849Y625356D01*
X327948Y625350D01*
X328048Y625348D01*
X330588Y625348D01*
X284492Y629064D02*
X278396Y629064D01*
X281444Y626016D02*
X281444Y632112D01*
X274230Y625508D02*
X271182Y625508D01*
X271093Y625510D01*
X271005Y625516D01*
X270917Y625525D01*
X270829Y625539D01*
X270742Y625556D01*
X270656Y625577D01*
X270571Y625602D01*
X270487Y625631D01*
X270404Y625663D01*
X270323Y625698D01*
X270244Y625738D01*
X270166Y625780D01*
X270090Y625826D01*
X270016Y625875D01*
X269945Y625928D01*
X269876Y625983D01*
X269809Y626042D01*
X269745Y626103D01*
X269684Y626167D01*
X269625Y626234D01*
X269570Y626303D01*
X269517Y626374D01*
X269468Y626448D01*
X269422Y626524D01*
X269380Y626602D01*
X269340Y626681D01*
X269305Y626762D01*
X269273Y626845D01*
X269244Y626929D01*
X269219Y627014D01*
X269198Y627100D01*
X269181Y627187D01*
X269167Y627275D01*
X269158Y627363D01*
X269152Y627451D01*
X269150Y627540D01*
X269150Y628556D01*
X269152Y628645D01*
X269158Y628733D01*
X269167Y628821D01*
X269181Y628909D01*
X269198Y628996D01*
X269219Y629082D01*
X269244Y629167D01*
X269273Y629251D01*
X269305Y629334D01*
X269340Y629415D01*
X269380Y629494D01*
X269422Y629572D01*
X269468Y629648D01*
X269517Y629722D01*
X269570Y629793D01*
X269625Y629862D01*
X269684Y629929D01*
X269745Y629993D01*
X269809Y630054D01*
X269876Y630113D01*
X269945Y630168D01*
X270016Y630221D01*
X270090Y630270D01*
X270166Y630316D01*
X270244Y630358D01*
X270323Y630398D01*
X270404Y630433D01*
X270487Y630465D01*
X270571Y630494D01*
X270656Y630519D01*
X270742Y630540D01*
X270829Y630557D01*
X270917Y630571D01*
X271005Y630580D01*
X271093Y630586D01*
X271182Y630588D01*
X274230Y630588D01*
X274230Y634652D01*
X269150Y634652D01*
X265594Y634652D02*
X262546Y625508D01*
X259498Y634652D01*
X278396Y599064D02*
X284492Y599064D01*
X281444Y596016D02*
X281444Y602112D01*
X274230Y595508D02*
X271182Y595508D01*
X271093Y595510D01*
X271005Y595516D01*
X270917Y595525D01*
X270829Y595539D01*
X270742Y595556D01*
X270656Y595577D01*
X270571Y595602D01*
X270487Y595631D01*
X270404Y595663D01*
X270323Y595698D01*
X270244Y595738D01*
X270166Y595780D01*
X270090Y595826D01*
X270016Y595875D01*
X269945Y595928D01*
X269876Y595983D01*
X269809Y596042D01*
X269745Y596103D01*
X269684Y596167D01*
X269625Y596234D01*
X269570Y596303D01*
X269517Y596374D01*
X269468Y596448D01*
X269422Y596524D01*
X269380Y596602D01*
X269340Y596681D01*
X269305Y596762D01*
X269273Y596845D01*
X269244Y596929D01*
X269219Y597014D01*
X269198Y597100D01*
X269181Y597187D01*
X269167Y597275D01*
X269158Y597363D01*
X269152Y597451D01*
X269150Y597540D01*
X269150Y598556D01*
X269152Y598645D01*
X269158Y598733D01*
X269167Y598821D01*
X269181Y598909D01*
X269198Y598996D01*
X269219Y599082D01*
X269244Y599167D01*
X269273Y599251D01*
X269305Y599334D01*
X269340Y599415D01*
X269380Y599494D01*
X269422Y599572D01*
X269468Y599648D01*
X269517Y599722D01*
X269570Y599793D01*
X269625Y599862D01*
X269684Y599929D01*
X269745Y599993D01*
X269809Y600054D01*
X269876Y600113D01*
X269945Y600168D01*
X270016Y600221D01*
X270090Y600270D01*
X270166Y600316D01*
X270244Y600358D01*
X270323Y600398D01*
X270404Y600433D01*
X270487Y600465D01*
X270571Y600494D01*
X270656Y600519D01*
X270742Y600540D01*
X270829Y600557D01*
X270917Y600571D01*
X271005Y600580D01*
X271093Y600586D01*
X271182Y600588D01*
X274230Y600588D01*
X274230Y604652D01*
X269150Y604652D01*
X265594Y604652D02*
X262546Y595508D01*
X259498Y604652D01*
X278396Y569064D02*
X284492Y569064D01*
X281444Y566016D02*
X281444Y572112D01*
X274230Y565508D02*
X271182Y565508D01*
X271093Y565510D01*
X271005Y565516D01*
X270917Y565525D01*
X270829Y565539D01*
X270742Y565556D01*
X270656Y565577D01*
X270571Y565602D01*
X270487Y565631D01*
X270404Y565663D01*
X270323Y565698D01*
X270244Y565738D01*
X270166Y565780D01*
X270090Y565826D01*
X270016Y565875D01*
X269945Y565928D01*
X269876Y565983D01*
X269809Y566042D01*
X269745Y566103D01*
X269684Y566167D01*
X269625Y566234D01*
X269570Y566303D01*
X269517Y566374D01*
X269468Y566448D01*
X269422Y566524D01*
X269380Y566602D01*
X269340Y566681D01*
X269305Y566762D01*
X269273Y566845D01*
X269244Y566929D01*
X269219Y567014D01*
X269198Y567100D01*
X269181Y567187D01*
X269167Y567275D01*
X269158Y567363D01*
X269152Y567451D01*
X269150Y567540D01*
X269150Y568556D01*
X269152Y568645D01*
X269158Y568733D01*
X269167Y568821D01*
X269181Y568909D01*
X269198Y568996D01*
X269219Y569082D01*
X269244Y569167D01*
X269273Y569251D01*
X269305Y569334D01*
X269340Y569415D01*
X269380Y569494D01*
X269422Y569572D01*
X269468Y569648D01*
X269517Y569722D01*
X269570Y569793D01*
X269625Y569862D01*
X269684Y569929D01*
X269745Y569993D01*
X269809Y570054D01*
X269876Y570113D01*
X269945Y570168D01*
X270016Y570221D01*
X270090Y570270D01*
X270166Y570316D01*
X270244Y570358D01*
X270323Y570398D01*
X270404Y570433D01*
X270487Y570465D01*
X270571Y570494D01*
X270656Y570519D01*
X270742Y570540D01*
X270829Y570557D01*
X270917Y570571D01*
X271005Y570580D01*
X271093Y570586D01*
X271182Y570588D01*
X274230Y570588D01*
X274230Y574652D01*
X269150Y574652D01*
X265594Y574652D02*
X262546Y565508D01*
X259498Y574652D01*
D11*
X292300Y589840D02*
X317700Y589840D01*
X292300Y610160D02*
X292200Y610158D01*
X292101Y610152D01*
X292001Y610142D01*
X291903Y610129D01*
X291804Y610111D01*
X291707Y610090D01*
X291611Y610065D01*
X291515Y610036D01*
X291421Y610003D01*
X291328Y609967D01*
X291237Y609927D01*
X291147Y609883D01*
X291059Y609836D01*
X290973Y609786D01*
X290889Y609732D01*
X290807Y609675D01*
X290728Y609615D01*
X290650Y609551D01*
X290576Y609485D01*
X290504Y609416D01*
X290435Y609344D01*
X290369Y609270D01*
X290305Y609192D01*
X290245Y609113D01*
X290188Y609031D01*
X290134Y608947D01*
X290084Y608861D01*
X290037Y608773D01*
X289993Y608683D01*
X289953Y608592D01*
X289917Y608499D01*
X289884Y608405D01*
X289855Y608309D01*
X289830Y608213D01*
X289809Y608116D01*
X289791Y608017D01*
X289778Y607919D01*
X289768Y607819D01*
X289762Y607720D01*
X289760Y607620D01*
X317700Y610160D02*
X317800Y610158D01*
X317899Y610152D01*
X317999Y610142D01*
X318097Y610129D01*
X318196Y610111D01*
X318293Y610090D01*
X318389Y610065D01*
X318485Y610036D01*
X318579Y610003D01*
X318672Y609967D01*
X318763Y609927D01*
X318853Y609883D01*
X318941Y609836D01*
X319027Y609786D01*
X319111Y609732D01*
X319193Y609675D01*
X319272Y609615D01*
X319350Y609551D01*
X319424Y609485D01*
X319496Y609416D01*
X319565Y609344D01*
X319631Y609270D01*
X319695Y609192D01*
X319755Y609113D01*
X319812Y609031D01*
X319866Y608947D01*
X319916Y608861D01*
X319963Y608773D01*
X320007Y608683D01*
X320047Y608592D01*
X320083Y608499D01*
X320116Y608405D01*
X320145Y608309D01*
X320170Y608213D01*
X320191Y608116D01*
X320209Y608017D01*
X320222Y607919D01*
X320232Y607819D01*
X320238Y607720D01*
X320240Y607620D01*
X320240Y592380D02*
X320238Y592280D01*
X320232Y592181D01*
X320222Y592081D01*
X320209Y591983D01*
X320191Y591884D01*
X320170Y591787D01*
X320145Y591691D01*
X320116Y591595D01*
X320083Y591501D01*
X320047Y591408D01*
X320007Y591317D01*
X319963Y591227D01*
X319916Y591139D01*
X319866Y591053D01*
X319812Y590969D01*
X319755Y590887D01*
X319695Y590808D01*
X319631Y590730D01*
X319565Y590656D01*
X319496Y590584D01*
X319424Y590515D01*
X319350Y590449D01*
X319272Y590385D01*
X319193Y590325D01*
X319111Y590268D01*
X319027Y590214D01*
X318941Y590164D01*
X318853Y590117D01*
X318763Y590073D01*
X318672Y590033D01*
X318579Y589997D01*
X318485Y589964D01*
X318389Y589935D01*
X318293Y589910D01*
X318196Y589889D01*
X318097Y589871D01*
X317999Y589858D01*
X317899Y589848D01*
X317800Y589842D01*
X317700Y589840D01*
X292300Y589840D02*
X292200Y589842D01*
X292101Y589848D01*
X292001Y589858D01*
X291903Y589871D01*
X291804Y589889D01*
X291707Y589910D01*
X291611Y589935D01*
X291515Y589964D01*
X291421Y589997D01*
X291328Y590033D01*
X291237Y590073D01*
X291147Y590117D01*
X291059Y590164D01*
X290973Y590214D01*
X290889Y590268D01*
X290807Y590325D01*
X290728Y590385D01*
X290650Y590449D01*
X290576Y590515D01*
X290504Y590584D01*
X290435Y590656D01*
X290369Y590730D01*
X290305Y590808D01*
X290245Y590887D01*
X290188Y590969D01*
X290134Y591053D01*
X290084Y591139D01*
X290037Y591227D01*
X289993Y591317D01*
X289953Y591408D01*
X289917Y591501D01*
X289884Y591595D01*
X289855Y591691D01*
X289830Y591787D01*
X289809Y591884D01*
X289791Y591983D01*
X289778Y592081D01*
X289768Y592181D01*
X289762Y592280D01*
X289760Y592380D01*
X289760Y607620D01*
X320240Y607620D02*
X320240Y592380D01*
X317700Y610160D02*
X292300Y610160D01*
D12*
X315471Y613744D02*
X315473Y613690D01*
X315478Y613636D01*
X315488Y613583D01*
X315500Y613531D01*
X315517Y613479D01*
X315536Y613429D01*
X315560Y613381D01*
X315586Y613334D01*
X315616Y613288D01*
X315648Y613245D01*
X315684Y613205D01*
X315722Y613167D01*
X315762Y613131D01*
X315805Y613099D01*
X315851Y613069D01*
X315898Y613043D01*
X315946Y613019D01*
X315996Y613000D01*
X316048Y612983D01*
X316100Y612971D01*
X316153Y612961D01*
X316207Y612956D01*
X316261Y612954D01*
X316338Y612956D01*
X316416Y612961D01*
X316493Y612970D01*
X316569Y612983D01*
X316645Y612999D01*
X316720Y613018D01*
X316794Y613041D01*
X316867Y613068D01*
X316939Y613098D01*
X317009Y613131D01*
X317077Y613167D01*
X317144Y613207D01*
X317209Y613249D01*
X317271Y613295D01*
X317332Y613343D01*
X317390Y613394D01*
X317446Y613448D01*
X317347Y615720D02*
X317345Y615774D01*
X317340Y615828D01*
X317330Y615881D01*
X317318Y615933D01*
X317301Y615985D01*
X317282Y616035D01*
X317258Y616083D01*
X317232Y616130D01*
X317202Y616176D01*
X317170Y616219D01*
X317134Y616259D01*
X317096Y616297D01*
X317056Y616333D01*
X317013Y616365D01*
X316967Y616395D01*
X316920Y616421D01*
X316872Y616445D01*
X316822Y616464D01*
X316770Y616481D01*
X316718Y616493D01*
X316665Y616503D01*
X316611Y616508D01*
X316557Y616510D01*
X316484Y616508D01*
X316411Y616503D01*
X316338Y616494D01*
X316265Y616481D01*
X316194Y616465D01*
X316123Y616445D01*
X316054Y616422D01*
X315985Y616395D01*
X315918Y616365D01*
X315853Y616332D01*
X315789Y616296D01*
X315728Y616256D01*
X315668Y616214D01*
X316953Y615028D02*
X317000Y615058D01*
X317044Y615091D01*
X317087Y615127D01*
X317126Y615166D01*
X317163Y615207D01*
X317197Y615251D01*
X317228Y615298D01*
X317256Y615346D01*
X317280Y615396D01*
X317300Y615448D01*
X317317Y615500D01*
X317331Y615554D01*
X317340Y615609D01*
X317346Y615664D01*
X317348Y615720D01*
X315865Y614436D02*
X315818Y614406D01*
X315774Y614373D01*
X315731Y614337D01*
X315692Y614298D01*
X315655Y614256D01*
X315621Y614213D01*
X315590Y614166D01*
X315562Y614118D01*
X315538Y614068D01*
X315518Y614016D01*
X315501Y613963D01*
X315487Y613910D01*
X315478Y613855D01*
X315472Y613800D01*
X315470Y613744D01*
X315866Y614436D02*
X316952Y615028D01*
X313135Y613744D02*
X313135Y616510D01*
X313135Y613744D02*
X313137Y613690D01*
X313142Y613636D01*
X313152Y613583D01*
X313164Y613531D01*
X313181Y613479D01*
X313200Y613429D01*
X313224Y613381D01*
X313250Y613334D01*
X313280Y613288D01*
X313312Y613245D01*
X313348Y613205D01*
X313386Y613167D01*
X313426Y613131D01*
X313469Y613099D01*
X313515Y613069D01*
X313562Y613043D01*
X313610Y613019D01*
X313660Y613000D01*
X313712Y612983D01*
X313764Y612971D01*
X313817Y612961D01*
X313871Y612956D01*
X313925Y612954D01*
X314320Y612954D01*
X311350Y615720D02*
X310362Y616510D01*
X310362Y612954D01*
X309375Y612954D02*
X311350Y612954D01*
D11*
X317700Y559840D02*
X292300Y559840D01*
X289760Y577620D02*
X289762Y577720D01*
X289768Y577819D01*
X289778Y577919D01*
X289791Y578017D01*
X289809Y578116D01*
X289830Y578213D01*
X289855Y578309D01*
X289884Y578405D01*
X289917Y578499D01*
X289953Y578592D01*
X289993Y578683D01*
X290037Y578773D01*
X290084Y578861D01*
X290134Y578947D01*
X290188Y579031D01*
X290245Y579113D01*
X290305Y579192D01*
X290369Y579270D01*
X290435Y579344D01*
X290504Y579416D01*
X290576Y579485D01*
X290650Y579551D01*
X290728Y579615D01*
X290807Y579675D01*
X290889Y579732D01*
X290973Y579786D01*
X291059Y579836D01*
X291147Y579883D01*
X291237Y579927D01*
X291328Y579967D01*
X291421Y580003D01*
X291515Y580036D01*
X291611Y580065D01*
X291707Y580090D01*
X291804Y580111D01*
X291903Y580129D01*
X292001Y580142D01*
X292101Y580152D01*
X292200Y580158D01*
X292300Y580160D01*
X317700Y580160D02*
X317800Y580158D01*
X317899Y580152D01*
X317999Y580142D01*
X318097Y580129D01*
X318196Y580111D01*
X318293Y580090D01*
X318389Y580065D01*
X318485Y580036D01*
X318579Y580003D01*
X318672Y579967D01*
X318763Y579927D01*
X318853Y579883D01*
X318941Y579836D01*
X319027Y579786D01*
X319111Y579732D01*
X319193Y579675D01*
X319272Y579615D01*
X319350Y579551D01*
X319424Y579485D01*
X319496Y579416D01*
X319565Y579344D01*
X319631Y579270D01*
X319695Y579192D01*
X319755Y579113D01*
X319812Y579031D01*
X319866Y578947D01*
X319916Y578861D01*
X319963Y578773D01*
X320007Y578683D01*
X320047Y578592D01*
X320083Y578499D01*
X320116Y578405D01*
X320145Y578309D01*
X320170Y578213D01*
X320191Y578116D01*
X320209Y578017D01*
X320222Y577919D01*
X320232Y577819D01*
X320238Y577720D01*
X320240Y577620D01*
X320240Y562380D02*
X320238Y562280D01*
X320232Y562181D01*
X320222Y562081D01*
X320209Y561983D01*
X320191Y561884D01*
X320170Y561787D01*
X320145Y561691D01*
X320116Y561595D01*
X320083Y561501D01*
X320047Y561408D01*
X320007Y561317D01*
X319963Y561227D01*
X319916Y561139D01*
X319866Y561053D01*
X319812Y560969D01*
X319755Y560887D01*
X319695Y560808D01*
X319631Y560730D01*
X319565Y560656D01*
X319496Y560584D01*
X319424Y560515D01*
X319350Y560449D01*
X319272Y560385D01*
X319193Y560325D01*
X319111Y560268D01*
X319027Y560214D01*
X318941Y560164D01*
X318853Y560117D01*
X318763Y560073D01*
X318672Y560033D01*
X318579Y559997D01*
X318485Y559964D01*
X318389Y559935D01*
X318293Y559910D01*
X318196Y559889D01*
X318097Y559871D01*
X317999Y559858D01*
X317899Y559848D01*
X317800Y559842D01*
X317700Y559840D01*
X292300Y559840D02*
X292200Y559842D01*
X292101Y559848D01*
X292001Y559858D01*
X291903Y559871D01*
X291804Y559889D01*
X291707Y559910D01*
X291611Y559935D01*
X291515Y559964D01*
X291421Y559997D01*
X291328Y560033D01*
X291237Y560073D01*
X291147Y560117D01*
X291059Y560164D01*
X290973Y560214D01*
X290889Y560268D01*
X290807Y560325D01*
X290728Y560385D01*
X290650Y560449D01*
X290576Y560515D01*
X290504Y560584D01*
X290435Y560656D01*
X290369Y560730D01*
X290305Y560808D01*
X290245Y560887D01*
X290188Y560969D01*
X290134Y561053D01*
X290084Y561139D01*
X290037Y561227D01*
X289993Y561317D01*
X289953Y561408D01*
X289917Y561501D01*
X289884Y561595D01*
X289855Y561691D01*
X289830Y561787D01*
X289809Y561884D01*
X289791Y561983D01*
X289778Y562081D01*
X289768Y562181D01*
X289762Y562280D01*
X289760Y562380D01*
X289760Y577620D01*
X320240Y577620D02*
X320240Y562380D01*
X317700Y580160D02*
X292300Y580160D01*
D12*
X315471Y583744D02*
X315473Y583690D01*
X315478Y583636D01*
X315488Y583583D01*
X315500Y583531D01*
X315517Y583479D01*
X315536Y583429D01*
X315560Y583381D01*
X315586Y583334D01*
X315616Y583288D01*
X315648Y583245D01*
X315684Y583205D01*
X315722Y583167D01*
X315762Y583131D01*
X315805Y583099D01*
X315851Y583069D01*
X315898Y583043D01*
X315946Y583019D01*
X315996Y583000D01*
X316048Y582983D01*
X316100Y582971D01*
X316153Y582961D01*
X316207Y582956D01*
X316261Y582954D01*
X316338Y582956D01*
X316416Y582961D01*
X316493Y582970D01*
X316569Y582983D01*
X316645Y582999D01*
X316720Y583018D01*
X316794Y583041D01*
X316867Y583068D01*
X316939Y583098D01*
X317009Y583131D01*
X317077Y583167D01*
X317144Y583207D01*
X317209Y583249D01*
X317271Y583295D01*
X317332Y583343D01*
X317390Y583394D01*
X317446Y583448D01*
X317347Y585720D02*
X317345Y585774D01*
X317340Y585828D01*
X317330Y585881D01*
X317318Y585933D01*
X317301Y585985D01*
X317282Y586035D01*
X317258Y586083D01*
X317232Y586130D01*
X317202Y586176D01*
X317170Y586219D01*
X317134Y586259D01*
X317096Y586297D01*
X317056Y586333D01*
X317013Y586365D01*
X316967Y586395D01*
X316920Y586421D01*
X316872Y586445D01*
X316822Y586464D01*
X316770Y586481D01*
X316718Y586493D01*
X316665Y586503D01*
X316611Y586508D01*
X316557Y586510D01*
X316484Y586508D01*
X316411Y586503D01*
X316338Y586494D01*
X316265Y586481D01*
X316194Y586465D01*
X316123Y586445D01*
X316054Y586422D01*
X315985Y586395D01*
X315918Y586365D01*
X315853Y586332D01*
X315789Y586296D01*
X315728Y586256D01*
X315668Y586214D01*
X316953Y585028D02*
X317000Y585058D01*
X317044Y585091D01*
X317087Y585127D01*
X317126Y585166D01*
X317163Y585207D01*
X317197Y585251D01*
X317228Y585298D01*
X317256Y585346D01*
X317280Y585396D01*
X317300Y585448D01*
X317317Y585500D01*
X317331Y585554D01*
X317340Y585609D01*
X317346Y585664D01*
X317348Y585720D01*
X315865Y584436D02*
X315818Y584406D01*
X315774Y584373D01*
X315731Y584337D01*
X315692Y584298D01*
X315655Y584256D01*
X315621Y584213D01*
X315590Y584166D01*
X315562Y584118D01*
X315538Y584068D01*
X315518Y584016D01*
X315501Y583963D01*
X315487Y583910D01*
X315478Y583855D01*
X315472Y583800D01*
X315470Y583744D01*
X315866Y584436D02*
X316952Y585028D01*
X313135Y583744D02*
X313135Y586510D01*
X313135Y583744D02*
X313137Y583690D01*
X313142Y583636D01*
X313152Y583583D01*
X313164Y583531D01*
X313181Y583479D01*
X313200Y583429D01*
X313224Y583381D01*
X313250Y583334D01*
X313280Y583288D01*
X313312Y583245D01*
X313348Y583205D01*
X313386Y583167D01*
X313426Y583131D01*
X313469Y583099D01*
X313515Y583069D01*
X313562Y583043D01*
X313610Y583019D01*
X313660Y583000D01*
X313712Y582983D01*
X313764Y582971D01*
X313817Y582961D01*
X313871Y582956D01*
X313925Y582954D01*
X314320Y582954D01*
X310264Y586510D02*
X310206Y586508D01*
X310148Y586502D01*
X310091Y586493D01*
X310034Y586480D01*
X309978Y586463D01*
X309924Y586442D01*
X309871Y586418D01*
X309820Y586391D01*
X309770Y586360D01*
X309723Y586326D01*
X309678Y586289D01*
X309635Y586250D01*
X309596Y586207D01*
X309559Y586162D01*
X309525Y586115D01*
X309494Y586066D01*
X309467Y586014D01*
X309443Y585961D01*
X309422Y585907D01*
X309405Y585851D01*
X309392Y585794D01*
X309383Y585737D01*
X309377Y585679D01*
X309375Y585621D01*
X310264Y586510D02*
X310329Y586508D01*
X310394Y586503D01*
X310459Y586493D01*
X310523Y586480D01*
X310586Y586464D01*
X310648Y586443D01*
X310709Y586420D01*
X310768Y586393D01*
X310826Y586362D01*
X310882Y586328D01*
X310936Y586292D01*
X310987Y586252D01*
X311037Y586209D01*
X311083Y586163D01*
X311128Y586115D01*
X311169Y586065D01*
X311207Y586012D01*
X311242Y585957D01*
X311274Y585900D01*
X311303Y585841D01*
X311329Y585781D01*
X311350Y585720D01*
X309671Y584930D02*
X309630Y584972D01*
X309590Y585017D01*
X309554Y585064D01*
X309521Y585113D01*
X309491Y585165D01*
X309464Y585218D01*
X309441Y585272D01*
X309421Y585328D01*
X309404Y585386D01*
X309392Y585444D01*
X309382Y585502D01*
X309377Y585562D01*
X309375Y585621D01*
X309671Y584930D02*
X311350Y582954D01*
X309375Y582954D01*
D11*
X317700Y619840D02*
X292300Y619840D01*
X289760Y637620D02*
X289762Y637720D01*
X289768Y637819D01*
X289778Y637919D01*
X289791Y638017D01*
X289809Y638116D01*
X289830Y638213D01*
X289855Y638309D01*
X289884Y638405D01*
X289917Y638499D01*
X289953Y638592D01*
X289993Y638683D01*
X290037Y638773D01*
X290084Y638861D01*
X290134Y638947D01*
X290188Y639031D01*
X290245Y639113D01*
X290305Y639192D01*
X290369Y639270D01*
X290435Y639344D01*
X290504Y639416D01*
X290576Y639485D01*
X290650Y639551D01*
X290728Y639615D01*
X290807Y639675D01*
X290889Y639732D01*
X290973Y639786D01*
X291059Y639836D01*
X291147Y639883D01*
X291237Y639927D01*
X291328Y639967D01*
X291421Y640003D01*
X291515Y640036D01*
X291611Y640065D01*
X291707Y640090D01*
X291804Y640111D01*
X291903Y640129D01*
X292001Y640142D01*
X292101Y640152D01*
X292200Y640158D01*
X292300Y640160D01*
X317700Y640160D02*
X317800Y640158D01*
X317899Y640152D01*
X317999Y640142D01*
X318097Y640129D01*
X318196Y640111D01*
X318293Y640090D01*
X318389Y640065D01*
X318485Y640036D01*
X318579Y640003D01*
X318672Y639967D01*
X318763Y639927D01*
X318853Y639883D01*
X318941Y639836D01*
X319027Y639786D01*
X319111Y639732D01*
X319193Y639675D01*
X319272Y639615D01*
X319350Y639551D01*
X319424Y639485D01*
X319496Y639416D01*
X319565Y639344D01*
X319631Y639270D01*
X319695Y639192D01*
X319755Y639113D01*
X319812Y639031D01*
X319866Y638947D01*
X319916Y638861D01*
X319963Y638773D01*
X320007Y638683D01*
X320047Y638592D01*
X320083Y638499D01*
X320116Y638405D01*
X320145Y638309D01*
X320170Y638213D01*
X320191Y638116D01*
X320209Y638017D01*
X320222Y637919D01*
X320232Y637819D01*
X320238Y637720D01*
X320240Y637620D01*
X320240Y622380D02*
X320238Y622280D01*
X320232Y622181D01*
X320222Y622081D01*
X320209Y621983D01*
X320191Y621884D01*
X320170Y621787D01*
X320145Y621691D01*
X320116Y621595D01*
X320083Y621501D01*
X320047Y621408D01*
X320007Y621317D01*
X319963Y621227D01*
X319916Y621139D01*
X319866Y621053D01*
X319812Y620969D01*
X319755Y620887D01*
X319695Y620808D01*
X319631Y620730D01*
X319565Y620656D01*
X319496Y620584D01*
X319424Y620515D01*
X319350Y620449D01*
X319272Y620385D01*
X319193Y620325D01*
X319111Y620268D01*
X319027Y620214D01*
X318941Y620164D01*
X318853Y620117D01*
X318763Y620073D01*
X318672Y620033D01*
X318579Y619997D01*
X318485Y619964D01*
X318389Y619935D01*
X318293Y619910D01*
X318196Y619889D01*
X318097Y619871D01*
X317999Y619858D01*
X317899Y619848D01*
X317800Y619842D01*
X317700Y619840D01*
X292300Y619840D02*
X292200Y619842D01*
X292101Y619848D01*
X292001Y619858D01*
X291903Y619871D01*
X291804Y619889D01*
X291707Y619910D01*
X291611Y619935D01*
X291515Y619964D01*
X291421Y619997D01*
X291328Y620033D01*
X291237Y620073D01*
X291147Y620117D01*
X291059Y620164D01*
X290973Y620214D01*
X290889Y620268D01*
X290807Y620325D01*
X290728Y620385D01*
X290650Y620449D01*
X290576Y620515D01*
X290504Y620584D01*
X290435Y620656D01*
X290369Y620730D01*
X290305Y620808D01*
X290245Y620887D01*
X290188Y620969D01*
X290134Y621053D01*
X290084Y621139D01*
X290037Y621227D01*
X289993Y621317D01*
X289953Y621408D01*
X289917Y621501D01*
X289884Y621595D01*
X289855Y621691D01*
X289830Y621787D01*
X289809Y621884D01*
X289791Y621983D01*
X289778Y622081D01*
X289768Y622181D01*
X289762Y622280D01*
X289760Y622380D01*
X289760Y637620D01*
X320240Y637620D02*
X320240Y622380D01*
X317700Y640160D02*
X292300Y640160D01*
D12*
X315471Y643744D02*
X315473Y643690D01*
X315478Y643636D01*
X315488Y643583D01*
X315500Y643531D01*
X315517Y643479D01*
X315536Y643429D01*
X315560Y643381D01*
X315586Y643334D01*
X315616Y643288D01*
X315648Y643245D01*
X315684Y643205D01*
X315722Y643167D01*
X315762Y643131D01*
X315805Y643099D01*
X315851Y643069D01*
X315898Y643043D01*
X315946Y643019D01*
X315996Y643000D01*
X316048Y642983D01*
X316100Y642971D01*
X316153Y642961D01*
X316207Y642956D01*
X316261Y642954D01*
X316338Y642956D01*
X316416Y642961D01*
X316493Y642970D01*
X316569Y642983D01*
X316645Y642999D01*
X316720Y643018D01*
X316794Y643041D01*
X316867Y643068D01*
X316939Y643098D01*
X317009Y643131D01*
X317077Y643167D01*
X317144Y643207D01*
X317209Y643249D01*
X317271Y643295D01*
X317332Y643343D01*
X317390Y643394D01*
X317446Y643448D01*
X317347Y645720D02*
X317345Y645774D01*
X317340Y645828D01*
X317330Y645881D01*
X317318Y645933D01*
X317301Y645985D01*
X317282Y646035D01*
X317258Y646083D01*
X317232Y646130D01*
X317202Y646176D01*
X317170Y646219D01*
X317134Y646259D01*
X317096Y646297D01*
X317056Y646333D01*
X317013Y646365D01*
X316967Y646395D01*
X316920Y646421D01*
X316872Y646445D01*
X316822Y646464D01*
X316770Y646481D01*
X316718Y646493D01*
X316665Y646503D01*
X316611Y646508D01*
X316557Y646510D01*
X316484Y646508D01*
X316411Y646503D01*
X316338Y646494D01*
X316265Y646481D01*
X316194Y646465D01*
X316123Y646445D01*
X316054Y646422D01*
X315985Y646395D01*
X315918Y646365D01*
X315853Y646332D01*
X315789Y646296D01*
X315728Y646256D01*
X315668Y646214D01*
X316953Y645028D02*
X317000Y645058D01*
X317044Y645091D01*
X317087Y645127D01*
X317126Y645166D01*
X317163Y645207D01*
X317197Y645251D01*
X317228Y645298D01*
X317256Y645346D01*
X317280Y645396D01*
X317300Y645448D01*
X317317Y645500D01*
X317331Y645554D01*
X317340Y645609D01*
X317346Y645664D01*
X317348Y645720D01*
X315865Y644436D02*
X315818Y644406D01*
X315774Y644373D01*
X315731Y644337D01*
X315692Y644298D01*
X315655Y644256D01*
X315621Y644213D01*
X315590Y644166D01*
X315562Y644118D01*
X315538Y644068D01*
X315518Y644016D01*
X315501Y643963D01*
X315487Y643910D01*
X315478Y643855D01*
X315472Y643800D01*
X315470Y643744D01*
X315866Y644436D02*
X316952Y645028D01*
X313135Y643744D02*
X313135Y646510D01*
X313135Y643744D02*
X313137Y643690D01*
X313142Y643636D01*
X313152Y643583D01*
X313164Y643531D01*
X313181Y643479D01*
X313200Y643429D01*
X313224Y643381D01*
X313250Y643334D01*
X313280Y643288D01*
X313312Y643245D01*
X313348Y643205D01*
X313386Y643167D01*
X313426Y643131D01*
X313469Y643099D01*
X313515Y643069D01*
X313562Y643043D01*
X313610Y643019D01*
X313660Y643000D01*
X313712Y642983D01*
X313764Y642971D01*
X313817Y642961D01*
X313871Y642956D01*
X313925Y642954D01*
X314320Y642954D01*
X311350Y643744D02*
X310560Y646510D01*
X311350Y643744D02*
X309375Y643744D01*
X309967Y644534D02*
X309967Y642954D01*
M02*
