G04 EAGLE Gerber RS-274X export*
G75*
%MOMM*%
%FSLAX34Y34*%
%LPD*%
%INSoldermask Bottom*%
%IPPOS*%
%AMOC8*
5,1,8,0,0,1.08239X$1,22.5*%
G01*
%ADD10R,1.609600X1.609600*%
%ADD11C,1.609600*%
%ADD12R,0.736600X1.371600*%
%ADD13C,2.201600*%
%ADD14C,3.301600*%


D10*
X58000Y405000D03*
D11*
X58000Y430400D03*
X58000Y481200D03*
X58000Y455800D03*
D12*
X313890Y600000D03*
X305000Y600000D03*
X296110Y600000D03*
X313890Y570000D03*
X305000Y570000D03*
X296110Y570000D03*
X313890Y630000D03*
X305000Y630000D03*
X296110Y630000D03*
D13*
X549500Y895000D02*
X570500Y895000D01*
X570500Y945000D02*
X549500Y945000D01*
X549500Y175000D02*
X570500Y175000D01*
X570500Y225000D02*
X549500Y225000D01*
X549500Y55000D02*
X570500Y55000D01*
X570500Y105000D02*
X549500Y105000D01*
D10*
X40000Y212500D03*
D11*
X40000Y187500D03*
X40000Y162500D03*
X40000Y137500D03*
D13*
X45500Y335000D02*
X24500Y335000D01*
X24500Y285000D02*
X45500Y285000D01*
X45500Y655000D02*
X24500Y655000D01*
X24500Y605000D02*
X45500Y605000D01*
X549500Y775000D02*
X570500Y775000D01*
X570500Y825000D02*
X549500Y825000D01*
X549500Y655000D02*
X570500Y655000D01*
X570500Y705000D02*
X549500Y705000D01*
X549500Y535000D02*
X570500Y535000D01*
X570500Y585000D02*
X549500Y585000D01*
X549500Y415000D02*
X570500Y415000D01*
X570500Y465000D02*
X549500Y465000D01*
X549500Y295000D02*
X570500Y295000D01*
X570500Y345000D02*
X549500Y345000D01*
D14*
X50000Y50000D03*
X50000Y950000D03*
X300000Y950000D03*
X300000Y50000D03*
M02*
