G04 EAGLE Gerber RS-274X export*
G75*
%MOMM*%
%FSLAX34Y34*%
%LPD*%
%INSolderpaste Top*%
%IPPOS*%
%AMOC8*
5,1,8,0,0,1.08239X$1,22.5*%
G01*
%ADD10R,1.100000X1.000000*%
%ADD11R,1.500000X1.300000*%
%ADD12R,1.000000X1.100000*%
%ADD13C,0.090000*%
%ADD14C,0.150000*%
%ADD15R,0.355600X1.473200*%
%ADD16R,1.200000X1.200000*%
%ADD17R,0.635000X1.016000*%


D10*
X186500Y70000D03*
X203500Y70000D03*
D11*
X102500Y427000D03*
X102500Y408000D03*
D10*
X433500Y200000D03*
X416500Y200000D03*
X433500Y80000D03*
X416500Y80000D03*
X186500Y260000D03*
X203500Y260000D03*
D12*
X335000Y506500D03*
X335000Y523500D03*
D10*
X433500Y920000D03*
X416500Y920000D03*
X433500Y800000D03*
X416500Y800000D03*
X433500Y680000D03*
X416500Y680000D03*
X433500Y560000D03*
X416500Y560000D03*
X433500Y440000D03*
X416500Y440000D03*
X433500Y320000D03*
X416500Y320000D03*
D13*
X455900Y935150D02*
X465000Y935150D01*
X455900Y935150D02*
X455900Y937850D01*
X465000Y937850D01*
X465000Y935150D01*
X465000Y936005D02*
X455900Y936005D01*
X455900Y936860D02*
X465000Y936860D01*
X465000Y937715D02*
X455900Y937715D01*
X455900Y928650D02*
X465000Y928650D01*
X455900Y928650D02*
X455900Y931350D01*
X465000Y931350D01*
X465000Y928650D01*
X465000Y929505D02*
X455900Y929505D01*
X455900Y930360D02*
X465000Y930360D01*
X465000Y931215D02*
X455900Y931215D01*
X455900Y922150D02*
X465000Y922150D01*
X455900Y922150D02*
X455900Y924850D01*
X465000Y924850D01*
X465000Y922150D01*
X465000Y923005D02*
X455900Y923005D01*
X455900Y923860D02*
X465000Y923860D01*
X465000Y924715D02*
X455900Y924715D01*
X475000Y922150D02*
X484100Y922150D01*
X475000Y922150D02*
X475000Y924850D01*
X484100Y924850D01*
X484100Y922150D01*
X484100Y923005D02*
X475000Y923005D01*
X475000Y923860D02*
X484100Y923860D01*
X484100Y924715D02*
X475000Y924715D01*
X475000Y928650D02*
X484100Y928650D01*
X475000Y928650D02*
X475000Y931350D01*
X484100Y931350D01*
X484100Y928650D01*
X484100Y929505D02*
X475000Y929505D01*
X475000Y930360D02*
X484100Y930360D01*
X484100Y931215D02*
X475000Y931215D01*
X475000Y935150D02*
X484100Y935150D01*
X475000Y935150D02*
X475000Y937850D01*
X484100Y937850D01*
X484100Y935150D01*
X484100Y936005D02*
X475000Y936005D01*
X475000Y936860D02*
X484100Y936860D01*
X484100Y937715D02*
X475000Y937715D01*
D14*
X178200Y149400D02*
X178200Y131200D01*
X173700Y131200D01*
X173700Y149400D01*
X178200Y149400D01*
X178200Y132625D02*
X173700Y132625D01*
X173700Y134050D02*
X178200Y134050D01*
X178200Y135475D02*
X173700Y135475D01*
X173700Y136900D02*
X178200Y136900D01*
X178200Y138325D02*
X173700Y138325D01*
X173700Y139750D02*
X178200Y139750D01*
X178200Y141175D02*
X173700Y141175D01*
X173700Y142600D02*
X178200Y142600D01*
X178200Y144025D02*
X173700Y144025D01*
X173700Y145450D02*
X178200Y145450D01*
X178200Y146875D02*
X173700Y146875D01*
X173700Y148300D02*
X178200Y148300D01*
X190900Y149400D02*
X190900Y131200D01*
X186400Y131200D01*
X186400Y149400D01*
X190900Y149400D01*
X190900Y132625D02*
X186400Y132625D01*
X186400Y134050D02*
X190900Y134050D01*
X190900Y135475D02*
X186400Y135475D01*
X186400Y136900D02*
X190900Y136900D01*
X190900Y138325D02*
X186400Y138325D01*
X186400Y139750D02*
X190900Y139750D01*
X190900Y141175D02*
X186400Y141175D01*
X186400Y142600D02*
X190900Y142600D01*
X190900Y144025D02*
X186400Y144025D01*
X186400Y145450D02*
X190900Y145450D01*
X190900Y146875D02*
X186400Y146875D01*
X186400Y148300D02*
X190900Y148300D01*
X203600Y149400D02*
X203600Y131200D01*
X199100Y131200D01*
X199100Y149400D01*
X203600Y149400D01*
X203600Y132625D02*
X199100Y132625D01*
X199100Y134050D02*
X203600Y134050D01*
X203600Y135475D02*
X199100Y135475D01*
X199100Y136900D02*
X203600Y136900D01*
X203600Y138325D02*
X199100Y138325D01*
X199100Y139750D02*
X203600Y139750D01*
X203600Y141175D02*
X199100Y141175D01*
X199100Y142600D02*
X203600Y142600D01*
X203600Y144025D02*
X199100Y144025D01*
X199100Y145450D02*
X203600Y145450D01*
X203600Y146875D02*
X199100Y146875D01*
X199100Y148300D02*
X203600Y148300D01*
X216300Y149400D02*
X216300Y131200D01*
X211800Y131200D01*
X211800Y149400D01*
X216300Y149400D01*
X216300Y132625D02*
X211800Y132625D01*
X211800Y134050D02*
X216300Y134050D01*
X216300Y135475D02*
X211800Y135475D01*
X211800Y136900D02*
X216300Y136900D01*
X216300Y138325D02*
X211800Y138325D01*
X211800Y139750D02*
X216300Y139750D01*
X216300Y141175D02*
X211800Y141175D01*
X211800Y142600D02*
X216300Y142600D01*
X216300Y144025D02*
X211800Y144025D01*
X211800Y145450D02*
X216300Y145450D01*
X216300Y146875D02*
X211800Y146875D01*
X211800Y148300D02*
X216300Y148300D01*
X216300Y180600D02*
X216300Y198800D01*
X216300Y180600D02*
X211800Y180600D01*
X211800Y198800D01*
X216300Y198800D01*
X216300Y182025D02*
X211800Y182025D01*
X211800Y183450D02*
X216300Y183450D01*
X216300Y184875D02*
X211800Y184875D01*
X211800Y186300D02*
X216300Y186300D01*
X216300Y187725D02*
X211800Y187725D01*
X211800Y189150D02*
X216300Y189150D01*
X216300Y190575D02*
X211800Y190575D01*
X211800Y192000D02*
X216300Y192000D01*
X216300Y193425D02*
X211800Y193425D01*
X211800Y194850D02*
X216300Y194850D01*
X216300Y196275D02*
X211800Y196275D01*
X211800Y197700D02*
X216300Y197700D01*
X203600Y198800D02*
X203600Y180600D01*
X199100Y180600D01*
X199100Y198800D01*
X203600Y198800D01*
X203600Y182025D02*
X199100Y182025D01*
X199100Y183450D02*
X203600Y183450D01*
X203600Y184875D02*
X199100Y184875D01*
X199100Y186300D02*
X203600Y186300D01*
X203600Y187725D02*
X199100Y187725D01*
X199100Y189150D02*
X203600Y189150D01*
X203600Y190575D02*
X199100Y190575D01*
X199100Y192000D02*
X203600Y192000D01*
X203600Y193425D02*
X199100Y193425D01*
X199100Y194850D02*
X203600Y194850D01*
X203600Y196275D02*
X199100Y196275D01*
X199100Y197700D02*
X203600Y197700D01*
X190900Y198800D02*
X190900Y180600D01*
X186400Y180600D01*
X186400Y198800D01*
X190900Y198800D01*
X190900Y182025D02*
X186400Y182025D01*
X186400Y183450D02*
X190900Y183450D01*
X190900Y184875D02*
X186400Y184875D01*
X186400Y186300D02*
X190900Y186300D01*
X190900Y187725D02*
X186400Y187725D01*
X186400Y189150D02*
X190900Y189150D01*
X190900Y190575D02*
X186400Y190575D01*
X186400Y192000D02*
X190900Y192000D01*
X190900Y193425D02*
X186400Y193425D01*
X186400Y194850D02*
X190900Y194850D01*
X190900Y196275D02*
X186400Y196275D01*
X186400Y197700D02*
X190900Y197700D01*
X178200Y198800D02*
X178200Y180600D01*
X173700Y180600D01*
X173700Y198800D01*
X178200Y198800D01*
X178200Y182025D02*
X173700Y182025D01*
X173700Y183450D02*
X178200Y183450D01*
X178200Y184875D02*
X173700Y184875D01*
X173700Y186300D02*
X178200Y186300D01*
X178200Y187725D02*
X173700Y187725D01*
X173700Y189150D02*
X178200Y189150D01*
X178200Y190575D02*
X173700Y190575D01*
X173700Y192000D02*
X178200Y192000D01*
X178200Y193425D02*
X173700Y193425D01*
X173700Y194850D02*
X178200Y194850D01*
X178200Y196275D02*
X173700Y196275D01*
X173700Y197700D02*
X178200Y197700D01*
D13*
X455900Y815150D02*
X465000Y815150D01*
X455900Y815150D02*
X455900Y817850D01*
X465000Y817850D01*
X465000Y815150D01*
X465000Y816005D02*
X455900Y816005D01*
X455900Y816860D02*
X465000Y816860D01*
X465000Y817715D02*
X455900Y817715D01*
X455900Y808650D02*
X465000Y808650D01*
X455900Y808650D02*
X455900Y811350D01*
X465000Y811350D01*
X465000Y808650D01*
X465000Y809505D02*
X455900Y809505D01*
X455900Y810360D02*
X465000Y810360D01*
X465000Y811215D02*
X455900Y811215D01*
X455900Y802150D02*
X465000Y802150D01*
X455900Y802150D02*
X455900Y804850D01*
X465000Y804850D01*
X465000Y802150D01*
X465000Y803005D02*
X455900Y803005D01*
X455900Y803860D02*
X465000Y803860D01*
X465000Y804715D02*
X455900Y804715D01*
X475000Y802150D02*
X484100Y802150D01*
X475000Y802150D02*
X475000Y804850D01*
X484100Y804850D01*
X484100Y802150D01*
X484100Y803005D02*
X475000Y803005D01*
X475000Y803860D02*
X484100Y803860D01*
X484100Y804715D02*
X475000Y804715D01*
X475000Y808650D02*
X484100Y808650D01*
X475000Y808650D02*
X475000Y811350D01*
X484100Y811350D01*
X484100Y808650D01*
X484100Y809505D02*
X475000Y809505D01*
X475000Y810360D02*
X484100Y810360D01*
X484100Y811215D02*
X475000Y811215D01*
X475000Y815150D02*
X484100Y815150D01*
X475000Y815150D02*
X475000Y817850D01*
X484100Y817850D01*
X484100Y815150D01*
X484100Y816005D02*
X475000Y816005D01*
X475000Y816860D02*
X484100Y816860D01*
X484100Y817715D02*
X475000Y817715D01*
X465000Y695150D02*
X455900Y695150D01*
X455900Y697850D01*
X465000Y697850D01*
X465000Y695150D01*
X465000Y696005D02*
X455900Y696005D01*
X455900Y696860D02*
X465000Y696860D01*
X465000Y697715D02*
X455900Y697715D01*
X455900Y688650D02*
X465000Y688650D01*
X455900Y688650D02*
X455900Y691350D01*
X465000Y691350D01*
X465000Y688650D01*
X465000Y689505D02*
X455900Y689505D01*
X455900Y690360D02*
X465000Y690360D01*
X465000Y691215D02*
X455900Y691215D01*
X455900Y682150D02*
X465000Y682150D01*
X455900Y682150D02*
X455900Y684850D01*
X465000Y684850D01*
X465000Y682150D01*
X465000Y683005D02*
X455900Y683005D01*
X455900Y683860D02*
X465000Y683860D01*
X465000Y684715D02*
X455900Y684715D01*
X475000Y682150D02*
X484100Y682150D01*
X475000Y682150D02*
X475000Y684850D01*
X484100Y684850D01*
X484100Y682150D01*
X484100Y683005D02*
X475000Y683005D01*
X475000Y683860D02*
X484100Y683860D01*
X484100Y684715D02*
X475000Y684715D01*
X475000Y688650D02*
X484100Y688650D01*
X475000Y688650D02*
X475000Y691350D01*
X484100Y691350D01*
X484100Y688650D01*
X484100Y689505D02*
X475000Y689505D01*
X475000Y690360D02*
X484100Y690360D01*
X484100Y691215D02*
X475000Y691215D01*
X475000Y695150D02*
X484100Y695150D01*
X475000Y695150D02*
X475000Y697850D01*
X484100Y697850D01*
X484100Y695150D01*
X484100Y696005D02*
X475000Y696005D01*
X475000Y696860D02*
X484100Y696860D01*
X484100Y697715D02*
X475000Y697715D01*
X465000Y575150D02*
X455900Y575150D01*
X455900Y577850D01*
X465000Y577850D01*
X465000Y575150D01*
X465000Y576005D02*
X455900Y576005D01*
X455900Y576860D02*
X465000Y576860D01*
X465000Y577715D02*
X455900Y577715D01*
X455900Y568650D02*
X465000Y568650D01*
X455900Y568650D02*
X455900Y571350D01*
X465000Y571350D01*
X465000Y568650D01*
X465000Y569505D02*
X455900Y569505D01*
X455900Y570360D02*
X465000Y570360D01*
X465000Y571215D02*
X455900Y571215D01*
X455900Y562150D02*
X465000Y562150D01*
X455900Y562150D02*
X455900Y564850D01*
X465000Y564850D01*
X465000Y562150D01*
X465000Y563005D02*
X455900Y563005D01*
X455900Y563860D02*
X465000Y563860D01*
X465000Y564715D02*
X455900Y564715D01*
X475000Y562150D02*
X484100Y562150D01*
X475000Y562150D02*
X475000Y564850D01*
X484100Y564850D01*
X484100Y562150D01*
X484100Y563005D02*
X475000Y563005D01*
X475000Y563860D02*
X484100Y563860D01*
X484100Y564715D02*
X475000Y564715D01*
X475000Y568650D02*
X484100Y568650D01*
X475000Y568650D02*
X475000Y571350D01*
X484100Y571350D01*
X484100Y568650D01*
X484100Y569505D02*
X475000Y569505D01*
X475000Y570360D02*
X484100Y570360D01*
X484100Y571215D02*
X475000Y571215D01*
X475000Y575150D02*
X484100Y575150D01*
X475000Y575150D02*
X475000Y577850D01*
X484100Y577850D01*
X484100Y575150D01*
X484100Y576005D02*
X475000Y576005D01*
X475000Y576860D02*
X484100Y576860D01*
X484100Y577715D02*
X475000Y577715D01*
X465000Y455150D02*
X455900Y455150D01*
X455900Y457850D01*
X465000Y457850D01*
X465000Y455150D01*
X465000Y456005D02*
X455900Y456005D01*
X455900Y456860D02*
X465000Y456860D01*
X465000Y457715D02*
X455900Y457715D01*
X455900Y448650D02*
X465000Y448650D01*
X455900Y448650D02*
X455900Y451350D01*
X465000Y451350D01*
X465000Y448650D01*
X465000Y449505D02*
X455900Y449505D01*
X455900Y450360D02*
X465000Y450360D01*
X465000Y451215D02*
X455900Y451215D01*
X455900Y442150D02*
X465000Y442150D01*
X455900Y442150D02*
X455900Y444850D01*
X465000Y444850D01*
X465000Y442150D01*
X465000Y443005D02*
X455900Y443005D01*
X455900Y443860D02*
X465000Y443860D01*
X465000Y444715D02*
X455900Y444715D01*
X475000Y442150D02*
X484100Y442150D01*
X475000Y442150D02*
X475000Y444850D01*
X484100Y444850D01*
X484100Y442150D01*
X484100Y443005D02*
X475000Y443005D01*
X475000Y443860D02*
X484100Y443860D01*
X484100Y444715D02*
X475000Y444715D01*
X475000Y448650D02*
X484100Y448650D01*
X475000Y448650D02*
X475000Y451350D01*
X484100Y451350D01*
X484100Y448650D01*
X484100Y449505D02*
X475000Y449505D01*
X475000Y450360D02*
X484100Y450360D01*
X484100Y451215D02*
X475000Y451215D01*
X475000Y455150D02*
X484100Y455150D01*
X475000Y455150D02*
X475000Y457850D01*
X484100Y457850D01*
X484100Y455150D01*
X484100Y456005D02*
X475000Y456005D01*
X475000Y456860D02*
X484100Y456860D01*
X484100Y457715D02*
X475000Y457715D01*
X465000Y335150D02*
X455900Y335150D01*
X455900Y337850D01*
X465000Y337850D01*
X465000Y335150D01*
X465000Y336005D02*
X455900Y336005D01*
X455900Y336860D02*
X465000Y336860D01*
X465000Y337715D02*
X455900Y337715D01*
X455900Y328650D02*
X465000Y328650D01*
X455900Y328650D02*
X455900Y331350D01*
X465000Y331350D01*
X465000Y328650D01*
X465000Y329505D02*
X455900Y329505D01*
X455900Y330360D02*
X465000Y330360D01*
X465000Y331215D02*
X455900Y331215D01*
X455900Y322150D02*
X465000Y322150D01*
X455900Y322150D02*
X455900Y324850D01*
X465000Y324850D01*
X465000Y322150D01*
X465000Y323005D02*
X455900Y323005D01*
X455900Y323860D02*
X465000Y323860D01*
X465000Y324715D02*
X455900Y324715D01*
X475000Y322150D02*
X484100Y322150D01*
X475000Y322150D02*
X475000Y324850D01*
X484100Y324850D01*
X484100Y322150D01*
X484100Y323005D02*
X475000Y323005D01*
X475000Y323860D02*
X484100Y323860D01*
X484100Y324715D02*
X475000Y324715D01*
X475000Y328650D02*
X484100Y328650D01*
X475000Y328650D02*
X475000Y331350D01*
X484100Y331350D01*
X484100Y328650D01*
X484100Y329505D02*
X475000Y329505D01*
X475000Y330360D02*
X484100Y330360D01*
X484100Y331215D02*
X475000Y331215D01*
X475000Y335150D02*
X484100Y335150D01*
X475000Y335150D02*
X475000Y337850D01*
X484100Y337850D01*
X484100Y335150D01*
X484100Y336005D02*
X475000Y336005D01*
X475000Y336860D02*
X484100Y336860D01*
X484100Y337715D02*
X475000Y337715D01*
X465000Y215150D02*
X455900Y215150D01*
X455900Y217850D01*
X465000Y217850D01*
X465000Y215150D01*
X465000Y216005D02*
X455900Y216005D01*
X455900Y216860D02*
X465000Y216860D01*
X465000Y217715D02*
X455900Y217715D01*
X455900Y208650D02*
X465000Y208650D01*
X455900Y208650D02*
X455900Y211350D01*
X465000Y211350D01*
X465000Y208650D01*
X465000Y209505D02*
X455900Y209505D01*
X455900Y210360D02*
X465000Y210360D01*
X465000Y211215D02*
X455900Y211215D01*
X455900Y202150D02*
X465000Y202150D01*
X455900Y202150D02*
X455900Y204850D01*
X465000Y204850D01*
X465000Y202150D01*
X465000Y203005D02*
X455900Y203005D01*
X455900Y203860D02*
X465000Y203860D01*
X465000Y204715D02*
X455900Y204715D01*
X475000Y202150D02*
X484100Y202150D01*
X475000Y202150D02*
X475000Y204850D01*
X484100Y204850D01*
X484100Y202150D01*
X484100Y203005D02*
X475000Y203005D01*
X475000Y203860D02*
X484100Y203860D01*
X484100Y204715D02*
X475000Y204715D01*
X475000Y208650D02*
X484100Y208650D01*
X475000Y208650D02*
X475000Y211350D01*
X484100Y211350D01*
X484100Y208650D01*
X484100Y209505D02*
X475000Y209505D01*
X475000Y210360D02*
X484100Y210360D01*
X484100Y211215D02*
X475000Y211215D01*
X475000Y215150D02*
X484100Y215150D01*
X475000Y215150D02*
X475000Y217850D01*
X484100Y217850D01*
X484100Y215150D01*
X484100Y216005D02*
X475000Y216005D01*
X475000Y216860D02*
X484100Y216860D01*
X484100Y217715D02*
X475000Y217715D01*
X465000Y95150D02*
X455900Y95150D01*
X455900Y97850D01*
X465000Y97850D01*
X465000Y95150D01*
X465000Y96005D02*
X455900Y96005D01*
X455900Y96860D02*
X465000Y96860D01*
X465000Y97715D02*
X455900Y97715D01*
X455900Y88650D02*
X465000Y88650D01*
X455900Y88650D02*
X455900Y91350D01*
X465000Y91350D01*
X465000Y88650D01*
X465000Y89505D02*
X455900Y89505D01*
X455900Y90360D02*
X465000Y90360D01*
X465000Y91215D02*
X455900Y91215D01*
X455900Y82150D02*
X465000Y82150D01*
X455900Y82150D02*
X455900Y84850D01*
X465000Y84850D01*
X465000Y82150D01*
X465000Y83005D02*
X455900Y83005D01*
X455900Y83860D02*
X465000Y83860D01*
X465000Y84715D02*
X455900Y84715D01*
X475000Y82150D02*
X484100Y82150D01*
X475000Y82150D02*
X475000Y84850D01*
X484100Y84850D01*
X484100Y82150D01*
X484100Y83005D02*
X475000Y83005D01*
X475000Y83860D02*
X484100Y83860D01*
X484100Y84715D02*
X475000Y84715D01*
X475000Y88650D02*
X484100Y88650D01*
X475000Y88650D02*
X475000Y91350D01*
X484100Y91350D01*
X484100Y88650D01*
X484100Y89505D02*
X475000Y89505D01*
X475000Y90360D02*
X484100Y90360D01*
X484100Y91215D02*
X475000Y91215D01*
X475000Y95150D02*
X484100Y95150D01*
X475000Y95150D02*
X475000Y97850D01*
X484100Y97850D01*
X484100Y95150D01*
X484100Y96005D02*
X475000Y96005D01*
X475000Y96860D02*
X484100Y96860D01*
X484100Y97715D02*
X475000Y97715D01*
D15*
X317860Y544210D03*
X311256Y544210D03*
X304652Y544210D03*
X298302Y544210D03*
X291698Y544210D03*
X285348Y544210D03*
X278744Y544210D03*
X272140Y544210D03*
X272140Y485790D03*
X278744Y485790D03*
X285348Y485790D03*
X291698Y485790D03*
X298302Y485790D03*
X304652Y485790D03*
X311256Y485790D03*
X317860Y485790D03*
D16*
X160700Y538000D03*
X139700Y538000D03*
D17*
X390000Y940000D03*
X399500Y920000D03*
X380500Y920000D03*
X390000Y820000D03*
X399500Y800000D03*
X380500Y800000D03*
X390000Y700000D03*
X399500Y680000D03*
X380500Y680000D03*
X390000Y580000D03*
X399500Y560000D03*
X380500Y560000D03*
X390000Y460000D03*
X399500Y440000D03*
X380500Y440000D03*
X390000Y340000D03*
X399500Y320000D03*
X380500Y320000D03*
X389900Y220800D03*
X399400Y200800D03*
X380400Y200800D03*
X390000Y100000D03*
X399500Y80000D03*
X380500Y80000D03*
D10*
X186500Y90000D03*
X203500Y90000D03*
X416500Y460000D03*
X433500Y460000D03*
X416500Y340000D03*
X433500Y340000D03*
X416500Y220000D03*
X433500Y220000D03*
X416500Y100000D03*
X433500Y100000D03*
X186500Y110000D03*
X203500Y110000D03*
X186500Y240000D03*
X203500Y240000D03*
X186500Y220000D03*
X203500Y220000D03*
X140700Y516400D03*
X157700Y516400D03*
X416500Y940000D03*
X433500Y940000D03*
X416500Y820000D03*
X433500Y820000D03*
X416500Y700000D03*
X433500Y700000D03*
X416500Y580000D03*
X433500Y580000D03*
D16*
X414500Y880000D03*
X435500Y880000D03*
D10*
X433500Y900000D03*
X416500Y900000D03*
D16*
X414500Y760000D03*
X435500Y760000D03*
D10*
X433500Y780000D03*
X416500Y780000D03*
D16*
X414500Y640000D03*
X435500Y640000D03*
D10*
X433500Y660000D03*
X416500Y660000D03*
D16*
X414500Y520000D03*
X435500Y520000D03*
D10*
X433500Y540000D03*
X416500Y540000D03*
D16*
X414500Y400000D03*
X435500Y400000D03*
D10*
X433500Y420000D03*
X416500Y420000D03*
D16*
X414500Y280000D03*
X435500Y280000D03*
D10*
X433500Y300000D03*
X416500Y300000D03*
D16*
X414500Y160000D03*
X435500Y160000D03*
D10*
X433500Y180000D03*
X416500Y180000D03*
D16*
X414500Y40000D03*
X435500Y40000D03*
D10*
X433500Y60000D03*
X416500Y60000D03*
D11*
X102500Y482000D03*
X102500Y463000D03*
M02*
